# xmcd
#
# Track frame offsets:
#	150
#	11010
#	23712
#	41687
#	54477
#	68097
#	80570
#	92440
#	102267
#	121120
#	137705
#	150140
#	164030
#	174865
#	192030
#	205897
#	216395
#	226895
#	241795
#	252980
#
# Disc length: 3598 seconds
#
# Revision: 2
# Processed by: cddbd v1.5.1PL2 Copyright (c) Steve Scherf et al.
# Submitted via: audiograbber 1.83.01
#
DISCID=fc0e0c14
DTITLE=Various Artist - The Essential Series
DYEAR=1995
DGENRE=Country
TTITLE0=Jim Reeves - Welcome to My World
TTITLE1=Jim Reeves - Four Walls
TTITLE2=Vince Gill - I Never Knew Lonely
TTITLE3=Vince Gill - Everybody's Sweetheart
TTITLE4=Dottie West - Last Time I Saw Him
TTITLE5=Dottie West and Jim Reeves - Love Is No Excuse
TTITLE6=Skeeter Davis - The End of the World
TTITLE7=Skeeter Davis - Silver Threads and Golden Needles
TTITLE8=Ronnie Milsap - Stranger In My House
TTITLE9=Ronnie Milsap - Any Day Now
TTITLE10=Dolly Parton - 9 To 5
TTITLE11=Dolly Parton - I Will Always Love You
TTITLE12=Willie Nelson - Night Life
TTITLE13=Willie Nelson - Me and Paul
TTITLE14=Jim Ed Brown - Morning
TTITLE15=Jim Ed Brown - Pop A Top
TTITLE16=Jerry Reed - Amos Moses
TTITLE17=Jerry Reed - Lord, Mr. Ford
TTITLE18=Floyd Cramer - Last Date
TTITLE19=Floyd Cramer - Georgia On My Mind
EXTD=
EXTT0=
EXTT1=
EXTT2=
EXTT3=
EXTT4=
EXTT5=
EXTT6=
EXTT7=
EXTT8=
EXTT9=
EXTT10=
EXTT11=
EXTT12=
EXTT13=
EXTT14=
EXTT15=
EXTT16=
EXTT17=
EXTT18=
EXTT19=
PLAYORDER=
